# MagicaVoxel @ Ephtracy

# group
o 

# material
mtllib teterose.mtl
usemtl palette

# normals
vn -1 0 0
vn 1 0 0
vn 0 0 1
vn 0 0 -1
vn 0 -1 0
vn 0 1 0

# texcoords
vt 0.455078 0.5
vt 0.958984 0.5
vt 0.994141 0.5

# verts
v 0.8 2.3 -0.8
v 0.8 2.3 -2.4
v 0.8 2.4 -0.9
v 0.8 2.4 -2.3
v 0.8 3.8 -0.9
v 0.8 3.8 -2.3
v 0.8 3.9 -0.8
v 0.8 3.9 -2.4
v 1.4 3.9 -1.4
v 1.4 3.9 -1.5
v 1.4 3.9 -1.7
v 1.4 3.9 -1.8
v 1.4 4.1 -1.5
v 1.4 4.1 -1.7
v 1.4 4.2 -1.4
v 1.4 4.2 -1.8
v 1.8 3.9 -1.4
v 1.8 3.9 -1.5
v 1.8 3.9 -1.7
v 1.8 3.9 -1.8
v 1.8 4.1 -1.5
v 1.8 4.1 -1.7
v 1.8 4.2 -1.4
v 1.8 4.2 -1.8
v 2.4 2.3 -0.8
v 2.4 2.3 -2.4
v 2.4 2.4 -0.9
v 2.4 2.4 -2.3
v 2.4 3.8 -0.9
v 2.4 3.8 -2.3
v 2.4 3.9 -0.8
v 2.4 3.9 -2.4
v 0.8 2.3 -0.8
v 0.8 3.9 -0.8
v 0.9 2.4 -0.8
v 0.9 3.8 -0.8
v 1 3.1 -0.8
v 1 3.6 -0.8
v 1.1 2.4 -0.8
v 1.1 2.8 -0.8
v 1.1 3 -0.8
v 1.1 3.1 -0.8
v 1.1 3.6 -0.8
v 1.1 3.7 -0.8
v 1.2 2.4 -0.8
v 1.2 2.7 -0.8
v 1.2 3.3 -0.8
v 1.2 3.5 -0.8
v 1.3 3.2 -0.8
v 1.3 3.3 -0.8
v 1.3 3.4 -0.8
v 1.3 3.5 -0.8
v 1.4 2.4 -0.8
v 1.4 2.7 -0.8
v 1.4 3.2 -0.8
v 1.4 3.3 -0.8
v 1.4 3.4 -0.8
v 1.4 3.5 -0.8
v 1.5 2.4 -0.8
v 1.5 2.7 -0.8
v 1.5 3.3 -0.8
v 1.5 3.5 -0.8
v 1.7 2.4 -0.8
v 1.7 2.7 -0.8
v 1.7 3.3 -0.8
v 1.7 3.5 -0.8
v 1.8 2.4 -0.8
v 1.8 2.7 -0.8
v 1.8 3.2 -0.8
v 1.8 3.3 -0.8
v 1.8 3.4 -0.8
v 1.8 3.5 -0.8
v 1.9 3.2 -0.8
v 1.9 3.3 -0.8
v 1.9 3.4 -0.8
v 1.9 3.5 -0.8
v 2 2.4 -0.8
v 2 2.7 -0.8
v 2 3.3 -0.8
v 2 3.5 -0.8
v 2.1 2.4 -0.8
v 2.1 2.8 -0.8
v 2.1 3 -0.8
v 2.1 3.1 -0.8
v 2.1 3.6 -0.8
v 2.1 3.7 -0.8
v 2.2 3.1 -0.8
v 2.2 3.6 -0.8
v 2.3 2.4 -0.8
v 2.3 3.8 -0.8
v 2.4 2.3 -0.8
v 2.4 3.9 -0.8
v 1.4 3.9 -1.4
v 1.4 4.2 -1.4
v 1.5 3.9 -1.4
v 1.5 4.1 -1.4
v 1.7 3.9 -1.4
v 1.7 4.1 -1.4
v 1.8 3.9 -1.4
v 1.8 4.2 -1.4
v 1.4 3.9 -1.8
v 1.4 4.2 -1.8
v 1.5 3.9 -1.8
v 1.5 4.1 -1.8
v 1.7 3.9 -1.8
v 1.7 4.1 -1.8
v 1.8 3.9 -1.8
v 1.8 4.2 -1.8
v 0.8 2.3 -2.4
v 0.8 3.9 -2.4
v 0.9 2.4 -2.4
v 0.9 3.8 -2.4
v 2.3 2.4 -2.4
v 2.3 3.8 -2.4
v 2.4 2.3 -2.4
v 2.4 3.9 -2.4
v 0.8 2.3 -0.8
v 2.4 2.3 -0.8
v 0.9 2.3 -0.9
v 2.3 2.3 -0.9
v 0.9 2.3 -2.2
v 2.3 2.3 -2.2
v 0.8 2.3 -2.4
v 2.4 2.3 -2.4
v 0.8 3.9 -0.8
v 2.4 3.9 -0.8
v 0.9 3.9 -0.9
v 2.3 3.9 -0.9
v 1.4 3.9 -1.4
v 1.5 3.9 -1.4
v 1.7 3.9 -1.4
v 1.8 3.9 -1.4
v 1.4 3.9 -1.5
v 1.8 3.9 -1.5
v 1.4 3.9 -1.7
v 1.8 3.9 -1.7
v 1.4 3.9 -1.8
v 1.5 3.9 -1.8
v 1.7 3.9 -1.8
v 1.8 3.9 -1.8
v 0.9 3.9 -2.3
v 2.3 3.9 -2.3
v 0.8 3.9 -2.4
v 2.4 3.9 -2.4
v 1.4 4.2 -1.4
v 1.8 4.2 -1.4
v 1.5 4.2 -1.5
v 1.7 4.2 -1.5
v 1.5 4.2 -1.7
v 1.7 4.2 -1.7
v 1.4 4.2 -1.8
v 1.8 4.2 -1.8

# faces
f 3/3/1 2/3/1 1/3/1
f 4/3/1 2/3/1 3/3/1
f 5/3/1 3/3/1 1/3/1
f 5/2/1 4/2/1 3/2/1
f 6/3/1 2/3/1 4/3/1
f 6/2/1 4/2/1 5/2/1
f 7/3/1 5/3/1 1/3/1
f 7/3/1 6/3/1 5/3/1
f 8/3/1 2/3/1 6/3/1
f 8/3/1 6/3/1 7/3/1
f 13/3/1 10/3/1 9/3/1
f 13/2/1 11/2/1 10/2/1
f 14/3/1 12/3/1 11/3/1
f 14/2/1 11/2/1 13/2/1
f 15/3/1 13/3/1 9/3/1
f 15/3/1 14/3/1 13/3/1
f 16/3/1 12/3/1 14/3/1
f 16/3/1 14/3/1 15/3/1
f 17/3/2 18/3/2 21/3/2
f 18/2/2 19/2/2 21/2/2
f 19/3/2 20/3/2 22/3/2
f 21/2/2 19/2/2 22/2/2
f 17/3/2 21/3/2 23/3/2
f 21/3/2 22/3/2 23/3/2
f 22/3/2 20/3/2 24/3/2
f 23/3/2 22/3/2 24/3/2
f 25/3/2 26/3/2 27/3/2
f 27/3/2 26/3/2 28/3/2
f 25/3/2 27/3/2 29/3/2
f 27/2/2 28/2/2 29/2/2
f 28/3/2 26/3/2 30/3/2
f 29/2/2 28/2/2 30/2/2
f 25/3/2 29/3/2 31/3/2
f 29/3/2 30/3/2 31/3/2
f 30/3/2 26/3/2 32/3/2
f 31/3/2 30/3/2 32/3/2
f 35/3/3 34/3/3 33/3/3
f 36/3/3 34/3/3 35/3/3
f 37/2/3 36/2/3 35/2/3
f 38/2/3 36/2/3 37/2/3
f 39/3/3 35/3/3 33/3/3
f 39/2/3 37/2/3 35/2/3
f 40/2/3 37/2/3 39/2/3
f 41/2/3 37/2/3 40/2/3
f 42/3/3 38/3/3 37/3/3
f 42/2/3 37/2/3 41/2/3
f 43/2/3 36/2/3 38/2/3
f 43/3/3 38/3/3 42/3/3
f 44/2/3 36/2/3 43/2/3
f 45/3/3 39/3/3 33/3/3
f 45/3/3 40/3/3 39/3/3
f 46/3/3 40/3/3 45/3/3
f 47/3/3 42/3/3 41/3/3
f 47/3/3 44/3/3 43/3/3
f 47/3/3 43/3/3 42/3/3
f 48/3/3 44/3/3 47/3/3
f 49/3/3 47/3/3 41/3/3
f 50/1/3 48/1/3 47/1/3
f 50/3/3 47/3/3 49/3/3
f 51/1/3 48/1/3 50/1/3
f 52/3/3 44/3/3 48/3/3
f 52/1/3 48/1/3 51/1/3
f 53/2/3 46/2/3 45/2/3
f 53/3/3 45/3/3 33/3/3
f 54/3/3 40/3/3 46/3/3
f 54/2/3 46/2/3 53/2/3
f 55/1/3 51/1/3 50/1/3
f 55/3/3 49/3/3 41/3/3
f 55/1/3 50/1/3 49/1/3
f 56/1/3 51/1/3 55/1/3
f 57/3/3 52/3/3 51/3/3
f 57/1/3 51/1/3 56/1/3
f 58/3/3 44/3/3 52/3/3
f 58/3/3 52/3/3 57/3/3
f 59/3/3 53/3/3 33/3/3
f 59/3/3 54/3/3 53/3/3
f 60/3/3 40/3/3 54/3/3
f 60/3/3 54/3/3 59/3/3
f 61/1/3 57/1/3 56/1/3
f 61/3/3 56/3/3 55/3/3
f 61/1/3 58/1/3 57/1/3
f 62/3/3 44/3/3 58/3/3
f 62/1/3 58/1/3 61/1/3
f 63/2/3 60/2/3 59/2/3
f 63/3/3 59/3/3 33/3/3
f 64/3/3 40/3/3 60/3/3
f 64/2/3 60/2/3 63/2/3
f 65/3/3 61/3/3 55/3/3
f 65/3/3 62/3/3 61/3/3
f 66/3/3 44/3/3 62/3/3
f 66/3/3 62/3/3 65/3/3
f 67/3/3 63/3/3 33/3/3
f 67/3/3 64/3/3 63/3/3
f 68/3/3 40/3/3 64/3/3
f 68/3/3 64/3/3 67/3/3
f 69/3/3 65/3/3 55/3/3
f 69/3/3 55/3/3 41/3/3
f 70/1/3 66/1/3 65/1/3
f 70/3/3 65/3/3 69/3/3
f 71/1/3 66/1/3 70/1/3
f 72/3/3 44/3/3 66/3/3
f 72/1/3 66/1/3 71/1/3
f 73/1/3 71/1/3 70/1/3
f 73/3/3 69/3/3 41/3/3
f 73/1/3 70/1/3 69/1/3
f 74/1/3 71/1/3 73/1/3
f 75/3/3 72/3/3 71/3/3
f 75/1/3 71/1/3 74/1/3
f 76/3/3 44/3/3 72/3/3
f 76/3/3 72/3/3 75/3/3
f 77/3/3 67/3/3 33/3/3
f 77/2/3 68/2/3 67/2/3
f 78/3/3 40/3/3 68/3/3
f 78/2/3 68/2/3 77/2/3
f 79/1/3 75/1/3 74/1/3
f 79/3/3 74/3/3 73/3/3
f 79/1/3 76/1/3 75/1/3
f 80/3/3 44/3/3 76/3/3
f 80/1/3 76/1/3 79/1/3
f 81/3/3 77/3/3 33/3/3
f 81/3/3 78/3/3 77/3/3
f 82/2/3 41/2/3 40/2/3
f 82/3/3 78/3/3 81/3/3
f 82/3/3 40/3/3 78/3/3
f 83/3/3 79/3/3 73/3/3
f 83/2/3 41/2/3 82/2/3
f 83/3/3 73/3/3 41/3/3
f 83/3/3 80/3/3 79/3/3
f 84/3/3 80/3/3 83/3/3
f 85/3/3 44/3/3 80/3/3
f 85/3/3 80/3/3 84/3/3
f 86/2/3 36/2/3 44/2/3
f 86/3/3 44/3/3 85/3/3
f 87/2/3 82/2/3 81/2/3
f 87/3/3 85/3/3 84/3/3
f 87/2/3 84/2/3 83/2/3
f 87/2/3 83/2/3 82/2/3
f 88/2/3 86/2/3 85/2/3
f 88/3/3 85/3/3 87/3/3
f 89/3/3 81/3/3 33/3/3
f 89/2/3 87/2/3 81/2/3
f 89/2/3 88/2/3 87/2/3
f 90/2/3 36/2/3 86/2/3
f 90/2/3 88/2/3 89/2/3
f 90/3/3 34/3/3 36/3/3
f 90/2/3 86/2/3 88/2/3
f 91/3/3 89/3/3 33/3/3
f 91/3/3 90/3/3 89/3/3
f 92/3/3 34/3/3 90/3/3
f 92/3/3 90/3/3 91/3/3
f 95/3/3 94/3/3 93/3/3
f 96/3/3 94/3/3 95/3/3
f 97/2/3 96/2/3 95/2/3
f 98/3/3 94/3/3 96/3/3
f 98/2/3 96/2/3 97/2/3
f 99/3/3 98/3/3 97/3/3
f 100/3/3 94/3/3 98/3/3
f 100/3/3 98/3/3 99/3/3
f 101/3/4 102/3/4 103/3/4
f 103/3/4 102/3/4 104/3/4
f 103/2/4 104/2/4 105/2/4
f 104/3/4 102/3/4 106/3/4
f 105/2/4 104/2/4 106/2/4
f 105/3/4 106/3/4 107/3/4
f 106/3/4 102/3/4 108/3/4
f 107/3/4 106/3/4 108/3/4
f 109/3/4 110/3/4 111/3/4
f 111/3/4 110/3/4 112/3/4
f 109/3/4 111/3/4 113/3/4
f 111/2/4 112/2/4 113/2/4
f 112/3/4 110/3/4 114/3/4
f 113/2/4 112/2/4 114/2/4
f 109/3/4 113/3/4 115/3/4
f 113/3/4 114/3/4 115/3/4
f 114/3/4 110/3/4 116/3/4
f 115/3/4 114/3/4 116/3/4
f 119/3/5 118/3/5 117/3/5
f 120/3/5 118/3/5 119/3/5
f 121/3/5 119/3/5 117/3/5
f 121/2/5 120/2/5 119/2/5
f 122/3/5 118/3/5 120/3/5
f 122/2/5 120/2/5 121/2/5
f 123/3/5 121/3/5 117/3/5
f 123/3/5 122/3/5 121/3/5
f 124/3/5 118/3/5 122/3/5
f 124/3/5 122/3/5 123/3/5
f 125/3/6 126/3/6 127/3/6
f 127/3/6 126/3/6 128/3/6
f 127/2/6 128/2/6 129/2/6
f 129/2/6 128/2/6 130/2/6
f 130/2/6 128/2/6 131/2/6
f 131/2/6 128/2/6 132/2/6
f 127/2/6 129/2/6 133/2/6
f 132/2/6 128/2/6 134/2/6
f 127/2/6 133/2/6 135/2/6
f 134/2/6 128/2/6 136/2/6
f 127/2/6 135/2/6 137/2/6
f 136/2/6 128/2/6 140/2/6
f 125/3/6 127/3/6 141/3/6
f 139/2/6 140/2/6 141/2/6
f 138/2/6 139/2/6 141/2/6
f 127/2/6 137/2/6 141/2/6
f 137/2/6 138/2/6 141/2/6
f 140/2/6 128/2/6 142/2/6
f 141/2/6 140/2/6 142/2/6
f 128/3/6 126/3/6 142/3/6
f 125/3/6 141/3/6 143/3/6
f 141/3/6 142/3/6 143/3/6
f 142/3/6 126/3/6 144/3/6
f 143/3/6 142/3/6 144/3/6
f 145/3/6 146/3/6 147/3/6
f 147/3/6 146/3/6 148/3/6
f 145/3/6 147/3/6 149/3/6
f 147/2/6 148/2/6 149/2/6
f 148/3/6 146/3/6 150/3/6
f 149/2/6 148/2/6 150/2/6
f 145/3/6 149/3/6 151/3/6
f 149/3/6 150/3/6 151/3/6
f 150/3/6 146/3/6 152/3/6
f 151/3/6 150/3/6 152/3/6
