# MagicaVoxel @ Ephtracy

# group
o 

# material
mtllib tete_robot_top.mtl
usemtl palette

# normals
vn -1 0 0
vn 1 0 0
vn 0 0 1
vn 0 0 -1
vn 0 -1 0
vn 0 1 0

# texcoords
vt 0.0175781 0.5
vt 0.455078 0.5
vt 0.458984 0.5
vt 0.958984 0.5
vt 0.970703 0.5
vt 0.994141 0.5

# verts
v 0.8 2.3 -0.8
v 0.8 2.3 -2.4
v 0.8 2.4 -0.9
v 0.8 2.4 -1.1
v 0.8 2.4 -1.2
v 0.8 2.4 -1.4
v 0.8 2.4 -1.5
v 0.8 2.4 -1.7
v 0.8 2.4 -1.8
v 0.8 2.4 -2
v 0.8 2.4 -2.1
v 0.8 2.4 -2.3
v 0.8 2.7 -1.2
v 0.8 2.7 -1.4
v 0.8 2.7 -1.5
v 0.8 2.7 -1.7
v 0.8 2.7 -1.8
v 0.8 2.7 -2
v 0.8 2.8 -1.1
v 0.8 2.8 -2.1
v 0.8 2.9 -1.1
v 0.8 2.9 -2.1
v 0.8 3 -1
v 0.8 3 -1.1
v 0.8 3 -2.1
v 0.8 3 -2.2
v 0.8 3.1 -1.1
v 0.8 3.1 -1.2
v 0.8 3.1 -1.4
v 0.8 3.1 -1.5
v 0.8 3.1 -1.7
v 0.8 3.1 -1.8
v 0.8 3.1 -2
v 0.8 3.1 -2.1
v 0.8 3.2 -1.1
v 0.8 3.2 -1.2
v 0.8 3.2 -1.4
v 0.8 3.2 -1.5
v 0.8 3.2 -1.7
v 0.8 3.2 -1.8
v 0.8 3.2 -2
v 0.8 3.2 -2.1
v 0.8 3.4 -1.1
v 0.8 3.4 -1.2
v 0.8 3.4 -1.4
v 0.8 3.4 -1.5
v 0.8 3.4 -1.7
v 0.8 3.4 -1.8
v 0.8 3.4 -2
v 0.8 3.4 -2.1
v 0.8 3.5 -1.1
v 0.8 3.5 -1.2
v 0.8 3.5 -1.4
v 0.8 3.5 -1.5
v 0.8 3.5 -1.7
v 0.8 3.5 -1.8
v 0.8 3.5 -2
v 0.8 3.5 -2.1
v 0.8 3.6 -1
v 0.8 3.6 -1.1
v 0.8 3.6 -2.1
v 0.8 3.6 -2.2
v 0.8 3.7 -1.1
v 0.8 3.7 -2.1
v 0.8 3.8 -0.9
v 0.8 3.8 -2.3
v 0.8 3.9 -0.8
v 0.8 3.9 -2.4
v 1.4 3.9 -1.4
v 1.4 3.9 -1.5
v 1.4 3.9 -1.7
v 1.4 3.9 -1.8
v 1.4 4.1 -1.5
v 1.4 4.1 -1.7
v 1.4 4.2 -1.4
v 1.4 4.2 -1.8
v 1.8 3.9 -1.4
v 1.8 3.9 -1.5
v 1.8 3.9 -1.7
v 1.8 3.9 -1.8
v 1.8 4.1 -1.5
v 1.8 4.1 -1.7
v 1.8 4.2 -1.4
v 1.8 4.2 -1.8
v 2.4 2.3 -0.8
v 2.4 2.3 -2.4
v 2.4 2.4 -0.9
v 2.4 2.4 -1.1
v 2.4 2.4 -1.2
v 2.4 2.4 -1.4
v 2.4 2.4 -1.5
v 2.4 2.4 -1.7
v 2.4 2.4 -1.8
v 2.4 2.4 -2
v 2.4 2.4 -2.1
v 2.4 2.4 -2.3
v 2.4 2.7 -1.2
v 2.4 2.7 -1.4
v 2.4 2.7 -1.5
v 2.4 2.7 -1.7
v 2.4 2.7 -1.8
v 2.4 2.7 -2
v 2.4 2.8 -1.1
v 2.4 2.8 -2.1
v 2.4 3 -1.1
v 2.4 3 -2.1
v 2.4 3.1 -1
v 2.4 3.1 -1.1
v 2.4 3.1 -2.1
v 2.4 3.1 -2.2
v 2.4 3.2 -1.3
v 2.4 3.2 -1.5
v 2.4 3.2 -1.7
v 2.4 3.2 -1.9
v 2.4 3.4 -1.3
v 2.4 3.4 -1.5
v 2.4 3.4 -1.7
v 2.4 3.4 -1.9
v 2.4 3.6 -1
v 2.4 3.6 -1.1
v 2.4 3.6 -2.1
v 2.4 3.6 -2.2
v 2.4 3.7 -1.1
v 2.4 3.7 -2.1
v 2.4 3.8 -0.9
v 2.4 3.8 -2.3
v 2.4 3.9 -0.8
v 2.4 3.9 -2.4
v 0.8 2.3 -0.8
v 0.8 3.9 -0.8
v 0.9 2.4 -0.8
v 0.9 3.8 -0.8
v 1 3.1 -0.8
v 1 3.6 -0.8
v 1.1 2.4 -0.8
v 1.1 2.8 -0.8
v 1.1 3 -0.8
v 1.1 3.1 -0.8
v 1.1 3.6 -0.8
v 1.1 3.7 -0.8
v 1.2 2.4 -0.8
v 1.2 2.7 -0.8
v 1.2 3.2 -0.8
v 1.2 3.3 -0.8
v 1.3 3.2 -0.8
v 1.3 3.3 -0.8
v 1.3 3.4 -0.8
v 1.4 2.4 -0.8
v 1.4 2.7 -0.8
v 1.4 3.2 -0.8
v 1.4 3.3 -0.8
v 1.4 3.4 -0.8
v 1.5 2.4 -0.8
v 1.5 2.7 -0.8
v 1.5 3.2 -0.8
v 1.5 3.3 -0.8
v 1.7 2.4 -0.8
v 1.7 2.7 -0.8
v 1.7 3.2 -0.8
v 1.7 3.3 -0.8
v 1.8 2.4 -0.8
v 1.8 2.7 -0.8
v 1.8 3.2 -0.8
v 1.8 3.3 -0.8
v 1.8 3.4 -0.8
v 1.9 3.2 -0.8
v 1.9 3.3 -0.8
v 1.9 3.4 -0.8
v 2 2.4 -0.8
v 2 2.7 -0.8
v 2 3.2 -0.8
v 2 3.3 -0.8
v 2.1 2.4 -0.8
v 2.1 2.8 -0.8
v 2.1 3 -0.8
v 2.1 3.1 -0.8
v 2.1 3.6 -0.8
v 2.1 3.7 -0.8
v 2.2 3.1 -0.8
v 2.2 3.6 -0.8
v 2.3 2.4 -0.8
v 2.3 3.8 -0.8
v 2.4 2.3 -0.8
v 2.4 3.9 -0.8
v 1.4 3.9 -1.4
v 1.4 4.2 -1.4
v 1.5 3.9 -1.4
v 1.5 4.1 -1.4
v 1.7 3.9 -1.4
v 1.7 4.1 -1.4
v 1.8 3.9 -1.4
v 1.8 4.2 -1.4
v 1.4 3.9 -1.8
v 1.4 4.2 -1.8
v 1.5 3.9 -1.8
v 1.5 4.1 -1.8
v 1.7 3.9 -1.8
v 1.7 4.1 -1.8
v 1.8 3.9 -1.8
v 1.8 4.2 -1.8
v 0.8 2.3 -2.4
v 0.8 3.9 -2.4
v 0.9 2.4 -2.4
v 0.9 3.8 -2.4
v 1 3.1 -2.4
v 1 3.6 -2.4
v 1.1 2.4 -2.4
v 1.1 2.8 -2.4
v 1.1 3 -2.4
v 1.1 3.1 -2.4
v 1.1 3.6 -2.4
v 1.1 3.7 -2.4
v 1.2 2.4 -2.4
v 1.2 2.7 -2.4
v 1.2 3.3 -2.4
v 1.2 3.5 -2.4
v 1.3 3.2 -2.4
v 1.3 3.3 -2.4
v 1.3 3.4 -2.4
v 1.3 3.5 -2.4
v 1.4 2.4 -2.4
v 1.4 2.7 -2.4
v 1.4 3.2 -2.4
v 1.4 3.3 -2.4
v 1.4 3.4 -2.4
v 1.4 3.5 -2.4
v 1.5 2.4 -2.4
v 1.5 2.7 -2.4
v 1.5 3.3 -2.4
v 1.5 3.5 -2.4
v 1.7 2.4 -2.4
v 1.7 2.7 -2.4
v 1.7 3.3 -2.4
v 1.7 3.5 -2.4
v 1.8 2.4 -2.4
v 1.8 2.7 -2.4
v 1.8 3.2 -2.4
v 1.8 3.3 -2.4
v 1.8 3.4 -2.4
v 1.8 3.5 -2.4
v 1.9 3.2 -2.4
v 1.9 3.3 -2.4
v 1.9 3.4 -2.4
v 1.9 3.5 -2.4
v 2 2.4 -2.4
v 2 2.7 -2.4
v 2 3.3 -2.4
v 2 3.5 -2.4
v 2.1 2.4 -2.4
v 2.1 2.8 -2.4
v 2.1 3 -2.4
v 2.1 3.1 -2.4
v 2.1 3.6 -2.4
v 2.1 3.7 -2.4
v 2.2 3.1 -2.4
v 2.2 3.6 -2.4
v 2.3 2.4 -2.4
v 2.3 3.8 -2.4
v 2.4 2.3 -2.4
v 2.4 3.9 -2.4
v 0.8 2.3 -0.8
v 2.4 2.3 -0.8
v 0.9 2.3 -1
v 2.3 2.3 -1
v 0.9 2.3 -2.3
v 2.3 2.3 -2.3
v 0.8 2.3 -2.4
v 2.4 2.3 -2.4
v 0.8 3.9 -0.8
v 2.4 3.9 -0.8
v 0.9 3.9 -0.9
v 2.3 3.9 -0.9
v 1.4 3.9 -1.4
v 1.5 3.9 -1.4
v 1.7 3.9 -1.4
v 1.8 3.9 -1.4
v 1.4 3.9 -1.5
v 1.8 3.9 -1.5
v 1.4 3.9 -1.7
v 1.8 3.9 -1.7
v 1.4 3.9 -1.8
v 1.5 3.9 -1.8
v 1.7 3.9 -1.8
v 1.8 3.9 -1.8
v 0.9 3.9 -2.3
v 2.3 3.9 -2.3
v 0.8 3.9 -2.4
v 2.4 3.9 -2.4
v 1.4 4.2 -1.4
v 1.8 4.2 -1.4
v 1.5 4.2 -1.5
v 1.7 4.2 -1.5
v 1.5 4.2 -1.7
v 1.7 4.2 -1.7
v 1.4 4.2 -1.8
v 1.8 4.2 -1.8

# faces
f 3/6/1 2/6/1 1/6/1
f 4/6/1 2/6/1 3/6/1
f 5/6/1 2/6/1 4/6/1
f 6/6/1 2/6/1 5/6/1
f 7/6/1 2/6/1 6/6/1
f 8/6/1 2/6/1 7/6/1
f 9/6/1 2/6/1 8/6/1
f 10/6/1 2/6/1 9/6/1
f 11/6/1 2/6/1 10/6/1
f 12/6/1 2/6/1 11/6/1
f 13/6/1 5/6/1 4/6/1
f 13/4/1 6/4/1 5/4/1
f 14/6/1 7/6/1 6/6/1
f 14/4/1 6/4/1 13/4/1
f 15/4/1 8/4/1 7/4/1
f 15/6/1 7/6/1 14/6/1
f 16/6/1 9/6/1 8/6/1
f 16/4/1 8/4/1 15/4/1
f 17/4/1 10/4/1 9/4/1
f 17/6/1 9/6/1 16/6/1
f 18/6/1 11/6/1 10/6/1
f 18/4/1 10/4/1 17/4/1
f 19/4/1 4/4/1 3/4/1
f 19/6/1 13/6/1 4/6/1
f 19/6/1 18/6/1 17/6/1
f 19/6/1 17/6/1 16/6/1
f 19/6/1 16/6/1 15/6/1
f 19/6/1 15/6/1 14/6/1
f 19/6/1 14/6/1 13/6/1
f 20/6/1 11/6/1 18/6/1
f 20/6/1 18/6/1 19/6/1
f 20/4/1 12/4/1 11/4/1
f 21/4/1 19/4/1 3/4/1
f 21/4/1 20/4/1 19/4/1
f 22/4/1 12/4/1 20/4/1
f 22/4/1 20/4/1 21/4/1
f 23/4/1 21/4/1 3/4/1
f 24/6/1 22/6/1 21/6/1
f 24/4/1 21/4/1 23/4/1
f 25/4/1 12/4/1 22/4/1
f 25/6/1 22/6/1 24/6/1
f 26/4/1 12/4/1 25/4/1
f 27/6/1 24/6/1 23/6/1
f 27/6/1 25/6/1 24/6/1
f 27/6/1 26/6/1 25/6/1
f 28/6/1 26/6/1 27/6/1
f 29/6/1 26/6/1 28/6/1
f 30/6/1 26/6/1 29/6/1
f 31/6/1 26/6/1 30/6/1
f 32/6/1 26/6/1 31/6/1
f 33/6/1 26/6/1 32/6/1
f 34/6/1 26/6/1 33/6/1
f 35/6/1 27/6/1 23/6/1
f 35/5/1 28/5/1 27/5/1
f 36/6/1 29/6/1 28/6/1
f 36/5/1 28/5/1 35/5/1
f 37/5/1 30/5/1 29/5/1
f 37/6/1 29/6/1 36/6/1
f 38/6/1 31/6/1 30/6/1
f 38/5/1 30/5/1 37/5/1
f 39/5/1 32/5/1 31/5/1
f 39/6/1 31/6/1 38/6/1
f 40/6/1 33/6/1 32/6/1
f 40/5/1 32/5/1 39/5/1
f 41/5/1 34/5/1 33/5/1
f 41/6/1 33/6/1 40/6/1
f 42/6/1 26/6/1 34/6/1
f 42/5/1 34/5/1 41/5/1
f 43/6/1 35/6/1 23/6/1
f 43/6/1 36/6/1 35/6/1
f 44/5/1 37/5/1 36/5/1
f 44/6/1 36/6/1 43/6/1
f 45/6/1 40/6/1 39/6/1
f 45/5/1 37/5/1 44/5/1
f 45/6/1 38/6/1 37/6/1
f 45/6/1 39/6/1 38/6/1
f 46/6/1 40/6/1 45/6/1
f 47/6/1 40/6/1 46/6/1
f 48/5/1 41/5/1 40/5/1
f 48/6/1 40/6/1 47/6/1
f 49/6/1 42/6/1 41/6/1
f 49/5/1 41/5/1 48/5/1
f 50/6/1 26/6/1 42/6/1
f 50/6/1 42/6/1 49/6/1
f 51/5/1 44/5/1 43/5/1
f 51/6/1 43/6/1 23/6/1
f 52/6/1 45/6/1 44/6/1
f 52/5/1 44/5/1 51/5/1
f 53/5/1 46/5/1 45/5/1
f 53/6/1 45/6/1 52/6/1
f 54/6/1 47/6/1 46/6/1
f 54/5/1 46/5/1 53/5/1
f 55/5/1 48/5/1 47/5/1
f 55/6/1 47/6/1 54/6/1
f 56/6/1 49/6/1 48/6/1
f 56/5/1 48/5/1 55/5/1
f 57/5/1 50/5/1 49/5/1
f 57/6/1 49/6/1 56/6/1
f 58/6/1 26/6/1 50/6/1
f 58/5/1 50/5/1 57/5/1
f 59/4/1 23/4/1 3/4/1
f 59/6/1 53/6/1 52/6/1
f 59/6/1 58/6/1 57/6/1
f 59/6/1 52/6/1 51/6/1
f 59/6/1 51/6/1 23/6/1
f 59/6/1 56/6/1 55/6/1
f 59/6/1 54/6/1 53/6/1
f 59/6/1 55/6/1 54/6/1
f 59/6/1 57/6/1 56/6/1
f 60/6/1 58/6/1 59/6/1
f 61/6/1 26/6/1 58/6/1
f 61/6/1 58/6/1 60/6/1
f 62/4/1 12/4/1 26/4/1
f 62/6/1 26/6/1 61/6/1
f 63/6/1 61/6/1 60/6/1
f 63/4/1 60/4/1 59/4/1
f 64/4/1 62/4/1 61/4/1
f 64/6/1 61/6/1 63/6/1
f 65/6/1 3/6/1 1/6/1
f 65/4/1 63/4/1 59/4/1
f 65/4/1 64/4/1 63/4/1
f 65/4/1 59/4/1 3/4/1
f 66/4/1 62/4/1 64/4/1
f 66/4/1 64/4/1 65/4/1
f 66/4/1 12/4/1 62/4/1
f 66/6/1 2/6/1 12/6/1
f 67/6/1 65/6/1 1/6/1
f 67/6/1 66/6/1 65/6/1
f 68/6/1 2/6/1 66/6/1
f 68/6/1 66/6/1 67/6/1
f 73/6/1 70/6/1 69/6/1
f 73/4/1 71/4/1 70/4/1
f 74/6/1 72/6/1 71/6/1
f 74/4/1 71/4/1 73/4/1
f 75/6/1 73/6/1 69/6/1
f 75/6/1 74/6/1 73/6/1
f 76/6/1 72/6/1 74/6/1
f 76/6/1 74/6/1 75/6/1
f 77/6/2 78/6/2 81/6/2
f 78/4/2 79/4/2 81/4/2
f 79/6/2 80/6/2 82/6/2
f 81/4/2 79/4/2 82/4/2
f 77/6/2 81/6/2 83/6/2
f 81/6/2 82/6/2 83/6/2
f 82/6/2 80/6/2 84/6/2
f 83/6/2 82/6/2 84/6/2
f 85/6/2 86/6/2 87/6/2
f 87/6/2 86/6/2 88/6/2
f 88/6/2 86/6/2 89/6/2
f 89/6/2 86/6/2 90/6/2
f 90/6/2 86/6/2 91/6/2
f 91/6/2 86/6/2 92/6/2
f 92/6/2 86/6/2 93/6/2
f 93/6/2 86/6/2 94/6/2
f 94/6/2 86/6/2 95/6/2
f 95/6/2 86/6/2 96/6/2
f 88/6/2 89/6/2 97/6/2
f 89/4/2 90/4/2 97/4/2
f 90/6/2 91/6/2 98/6/2
f 97/4/2 90/4/2 98/4/2
f 91/4/2 92/4/2 99/4/2
f 98/6/2 91/6/2 99/6/2
f 92/6/2 93/6/2 100/6/2
f 99/4/2 92/4/2 100/4/2
f 93/4/2 94/4/2 101/4/2
f 100/6/2 93/6/2 101/6/2
f 94/6/2 95/6/2 102/6/2
f 101/4/2 94/4/2 102/4/2
f 87/4/2 88/4/2 103/4/2
f 88/6/2 97/6/2 103/6/2
f 101/6/2 102/6/2 103/6/2
f 100/6/2 101/6/2 103/6/2
f 99/6/2 100/6/2 103/6/2
f 98/6/2 99/6/2 103/6/2
f 97/6/2 98/6/2 103/6/2
f 102/6/2 95/6/2 104/6/2
f 103/6/2 102/6/2 104/6/2
f 95/4/2 96/4/2 104/4/2
f 87/4/2 103/4/2 105/4/2
f 103/4/2 104/4/2 105/4/2
f 104/4/2 96/4/2 106/4/2
f 105/4/2 104/4/2 106/4/2
f 87/4/2 105/4/2 107/4/2
f 105/6/2 106/6/2 108/6/2
f 107/4/2 105/4/2 108/4/2
f 106/4/2 96/4/2 109/4/2
f 108/6/2 106/6/2 109/6/2
f 109/4/2 96/4/2 110/4/2
f 107/6/2 108/6/2 111/6/2
f 108/6/2 109/6/2 111/6/2
f 109/6/2 110/6/2 111/6/2
f 111/6/2 110/6/2 112/6/2
f 112/6/2 110/6/2 113/6/2
f 113/6/2 110/6/2 114/6/2
f 107/6/2 111/6/2 115/6/2
f 111/3/2 112/3/2 115/3/2
f 112/6/2 113/6/2 116/6/2
f 115/3/2 112/3/2 116/3/2
f 113/3/2 114/3/2 117/3/2
f 116/6/2 113/6/2 117/6/2
f 114/6/2 110/6/2 118/6/2
f 117/3/2 114/3/2 118/3/2
f 87/4/2 107/4/2 119/4/2
f 116/6/2 117/6/2 119/6/2
f 117/6/2 118/6/2 119/6/2
f 107/6/2 115/6/2 119/6/2
f 115/6/2 116/6/2 119/6/2
f 119/6/2 118/6/2 120/6/2
f 118/6/2 110/6/2 121/6/2
f 120/6/2 118/6/2 121/6/2
f 110/4/2 96/4/2 122/4/2
f 121/6/2 110/6/2 122/6/2
f 120/6/2 121/6/2 123/6/2
f 119/4/2 120/4/2 123/4/2
f 121/4/2 122/4/2 124/4/2
f 123/6/2 121/6/2 124/6/2
f 85/6/2 87/6/2 125/6/2
f 119/4/2 123/4/2 125/4/2
f 123/4/2 124/4/2 125/4/2
f 87/4/2 119/4/2 125/4/2
f 124/4/2 122/4/2 126/4/2
f 125/4/2 124/4/2 126/4/2
f 122/4/2 96/4/2 126/4/2
f 96/6/2 86/6/2 126/6/2
f 85/6/2 125/6/2 127/6/2
f 125/6/2 126/6/2 127/6/2
f 126/6/2 86/6/2 128/6/2
f 127/6/2 126/6/2 128/6/2
f 131/6/3 130/6/3 129/6/3
f 132/6/3 130/6/3 131/6/3
f 133/4/3 132/4/3 131/4/3
f 134/4/3 132/4/3 133/4/3
f 135/6/3 131/6/3 129/6/3
f 135/4/3 133/4/3 131/4/3
f 136/4/3 133/4/3 135/4/3
f 137/4/3 133/4/3 136/4/3
f 138/6/3 134/6/3 133/6/3
f 138/4/3 133/4/3 137/4/3
f 139/4/3 132/4/3 134/4/3
f 139/6/3 134/6/3 138/6/3
f 140/4/3 132/4/3 139/4/3
f 141/6/3 135/6/3 129/6/3
f 141/6/3 136/6/3 135/6/3
f 142/6/3 136/6/3 141/6/3
f 143/6/3 138/6/3 137/6/3
f 143/6/3 140/6/3 139/6/3
f 143/6/3 139/6/3 138/6/3
f 144/6/3 140/6/3 143/6/3
f 145/6/3 143/6/3 137/6/3
f 145/1/3 144/1/3 143/1/3
f 146/6/3 140/6/3 144/6/3
f 146/1/3 144/1/3 145/1/3
f 147/6/3 140/6/3 146/6/3
f 148/4/3 142/4/3 141/4/3
f 148/6/3 141/6/3 129/6/3
f 149/6/3 136/6/3 142/6/3
f 149/4/3 142/4/3 148/4/3
f 150/6/3 145/6/3 137/6/3
f 150/6/3 146/6/3 145/6/3
f 151/1/3 147/1/3 146/1/3
f 151/6/3 146/6/3 150/6/3
f 152/6/3 140/6/3 147/6/3
f 152/1/3 147/1/3 151/1/3
f 153/6/3 148/6/3 129/6/3
f 153/6/3 149/6/3 148/6/3
f 154/6/3 136/6/3 149/6/3
f 154/6/3 149/6/3 153/6/3
f 155/1/3 151/1/3 150/1/3
f 155/6/3 150/6/3 137/6/3
f 156/6/3 152/6/3 151/6/3
f 156/1/3 151/1/3 155/1/3
f 157/4/3 154/4/3 153/4/3
f 157/6/3 153/6/3 129/6/3
f 158/6/3 136/6/3 154/6/3
f 158/4/3 154/4/3 157/4/3
f 159/6/3 156/6/3 155/6/3
f 159/6/3 155/6/3 137/6/3
f 160/6/3 152/6/3 156/6/3
f 160/6/3 156/6/3 159/6/3
f 161/6/3 157/6/3 129/6/3
f 161/6/3 158/6/3 157/6/3
f 162/6/3 136/6/3 158/6/3
f 162/6/3 158/6/3 161/6/3
f 163/6/3 159/6/3 137/6/3
f 163/1/3 160/1/3 159/1/3
f 164/6/3 152/6/3 160/6/3
f 164/1/3 160/1/3 163/1/3
f 165/6/3 140/6/3 152/6/3
f 165/6/3 152/6/3 164/6/3
f 166/6/3 164/6/3 163/6/3
f 166/6/3 163/6/3 137/6/3
f 167/1/3 165/1/3 164/1/3
f 167/6/3 164/6/3 166/6/3
f 168/6/3 140/6/3 165/6/3
f 168/1/3 165/1/3 167/1/3
f 169/6/3 161/6/3 129/6/3
f 169/4/3 162/4/3 161/4/3
f 170/6/3 136/6/3 162/6/3
f 170/4/3 162/4/3 169/4/3
f 171/1/3 167/1/3 166/1/3
f 171/6/3 166/6/3 137/6/3
f 172/6/3 168/6/3 167/6/3
f 172/1/3 167/1/3 171/1/3
f 173/6/3 170/6/3 169/6/3
f 173/6/3 169/6/3 129/6/3
f 174/6/3 136/6/3 170/6/3
f 174/6/3 170/6/3 173/6/3
f 174/4/3 137/4/3 136/4/3
f 175/6/3 171/6/3 137/6/3
f 175/4/3 137/4/3 174/4/3
f 175/6/3 172/6/3 171/6/3
f 176/6/3 172/6/3 175/6/3
f 177/6/3 168/6/3 172/6/3
f 177/6/3 172/6/3 176/6/3
f 177/6/3 140/6/3 168/6/3
f 178/4/3 132/4/3 140/4/3
f 178/6/3 140/6/3 177/6/3
f 179/4/3 174/4/3 173/4/3
f 179/6/3 177/6/3 176/6/3
f 179/4/3 176/4/3 175/4/3
f 179/4/3 175/4/3 174/4/3
f 180/4/3 178/4/3 177/4/3
f 180/6/3 177/6/3 179/6/3
f 181/6/3 173/6/3 129/6/3
f 181/4/3 179/4/3 173/4/3
f 181/4/3 180/4/3 179/4/3
f 182/4/3 178/4/3 180/4/3
f 182/4/3 180/4/3 181/4/3
f 182/6/3 130/6/3 132/6/3
f 182/4/3 132/4/3 178/4/3
f 183/6/3 181/6/3 129/6/3
f 183/6/3 182/6/3 181/6/3
f 184/6/3 130/6/3 182/6/3
f 184/6/3 182/6/3 183/6/3
f 187/6/3 186/6/3 185/6/3
f 188/6/3 186/6/3 187/6/3
f 189/4/3 188/4/3 187/4/3
f 190/6/3 186/6/3 188/6/3
f 190/4/3 188/4/3 189/4/3
f 191/6/3 190/6/3 189/6/3
f 192/6/3 186/6/3 190/6/3
f 192/6/3 190/6/3 191/6/3
f 193/6/4 194/6/4 195/6/4
f 195/6/4 194/6/4 196/6/4
f 195/4/4 196/4/4 197/4/4
f 196/6/4 194/6/4 198/6/4
f 197/4/4 196/4/4 198/4/4
f 197/6/4 198/6/4 199/6/4
f 198/6/4 194/6/4 200/6/4
f 199/6/4 198/6/4 200/6/4
f 201/6/4 202/6/4 203/6/4
f 203/6/4 202/6/4 204/6/4
f 203/4/4 204/4/4 205/4/4
f 205/4/4 204/4/4 206/4/4
f 201/6/4 203/6/4 207/6/4
f 203/4/4 205/4/4 207/4/4
f 207/4/4 205/4/4 208/4/4
f 208/4/4 205/4/4 209/4/4
f 205/6/4 206/6/4 210/6/4
f 209/4/4 205/4/4 210/4/4
f 206/4/4 204/4/4 211/4/4
f 210/6/4 206/6/4 211/6/4
f 211/4/4 204/4/4 212/4/4
f 201/6/4 207/6/4 213/6/4
f 207/6/4 208/6/4 213/6/4
f 213/6/4 208/6/4 214/6/4
f 209/6/4 210/6/4 215/6/4
f 211/6/4 212/6/4 215/6/4
f 210/6/4 211/6/4 215/6/4
f 215/6/4 212/6/4 216/6/4
f 209/6/4 215/6/4 217/6/4
f 215/2/4 216/2/4 218/2/4
f 217/6/4 215/6/4 218/6/4
f 218/2/4 216/2/4 219/2/4
f 216/6/4 212/6/4 220/6/4
f 219/2/4 216/2/4 220/2/4
f 213/4/4 214/4/4 221/4/4
f 201/6/4 213/6/4 221/6/4
f 214/6/4 208/6/4 222/6/4
f 221/4/4 214/4/4 222/4/4
f 218/2/4 219/2/4 223/2/4
f 209/6/4 217/6/4 223/6/4
f 217/2/4 218/2/4 223/2/4
f 223/2/4 219/2/4 224/2/4
f 219/6/4 220/6/4 225/6/4
f 224/2/4 219/2/4 225/2/4
f 220/6/4 212/6/4 226/6/4
f 225/6/4 220/6/4 226/6/4
f 201/6/4 221/6/4 227/6/4
f 221/6/4 222/6/4 227/6/4
f 222/6/4 208/6/4 228/6/4
f 227/6/4 222/6/4 228/6/4
f 224/2/4 225/2/4 229/2/4
f 223/6/4 224/6/4 229/6/4
f 225/2/4 226/2/4 229/2/4
f 226/6/4 212/6/4 230/6/4
f 229/2/4 226/2/4 230/2/4
f 227/4/4 228/4/4 231/4/4
f 201/6/4 227/6/4 231/6/4
f 228/6/4 208/6/4 232/6/4
f 231/4/4 228/4/4 232/4/4
f 223/6/4 229/6/4 233/6/4
f 229/6/4 230/6/4 233/6/4
f 230/6/4 212/6/4 234/6/4
f 233/6/4 230/6/4 234/6/4
f 201/6/4 231/6/4 235/6/4
f 231/6/4 232/6/4 235/6/4
f 232/6/4 208/6/4 236/6/4
f 235/6/4 232/6/4 236/6/4
f 223/6/4 233/6/4 237/6/4
f 209/6/4 223/6/4 237/6/4
f 233/2/4 234/2/4 238/2/4
f 237/6/4 233/6/4 238/6/4
f 238/2/4 234/2/4 239/2/4
f 234/6/4 212/6/4 240/6/4
f 239/2/4 234/2/4 240/2/4
f 238/2/4 239/2/4 241/2/4
f 209/6/4 237/6/4 241/6/4
f 237/2/4 238/2/4 241/2/4
f 241/2/4 239/2/4 242/2/4
f 239/6/4 240/6/4 243/6/4
f 242/2/4 239/2/4 243/2/4
f 240/6/4 212/6/4 244/6/4
f 243/6/4 240/6/4 244/6/4
f 201/6/4 235/6/4 245/6/4
f 235/4/4 236/4/4 245/4/4
f 236/6/4 208/6/4 246/6/4
f 245/4/4 236/4/4 246/4/4
f 242/2/4 243/2/4 247/2/4
f 241/6/4 242/6/4 247/6/4
f 243/2/4 244/2/4 247/2/4
f 244/6/4 212/6/4 248/6/4
f 247/2/4 244/2/4 248/2/4
f 201/6/4 245/6/4 249/6/4
f 245/6/4 246/6/4 249/6/4
f 208/4/4 209/4/4 250/4/4
f 249/6/4 246/6/4 250/6/4
f 246/6/4 208/6/4 250/6/4
f 241/6/4 247/6/4 251/6/4
f 250/4/4 209/4/4 251/4/4
f 209/6/4 241/6/4 251/6/4
f 247/6/4 248/6/4 251/6/4
f 251/6/4 248/6/4 252/6/4
f 248/6/4 212/6/4 253/6/4
f 252/6/4 248/6/4 253/6/4
f 212/4/4 204/4/4 254/4/4
f 253/6/4 212/6/4 254/6/4
f 249/4/4 250/4/4 255/4/4
f 252/6/4 253/6/4 255/6/4
f 251/4/4 252/4/4 255/4/4
f 250/4/4 251/4/4 255/4/4
f 253/4/4 254/4/4 256/4/4
f 255/6/4 253/6/4 256/6/4
f 201/6/4 249/6/4 257/6/4
f 249/4/4 255/4/4 257/4/4
f 255/4/4 256/4/4 257/4/4
f 254/4/4 204/4/4 258/4/4
f 257/4/4 256/4/4 258/4/4
f 204/6/4 202/6/4 258/6/4
f 256/4/4 254/4/4 258/4/4
f 201/6/4 257/6/4 259/6/4
f 257/6/4 258/6/4 259/6/4
f 258/6/4 202/6/4 260/6/4
f 259/6/4 258/6/4 260/6/4
f 263/6/5 262/6/5 261/6/5
f 264/6/5 262/6/5 263/6/5
f 265/6/5 263/6/5 261/6/5
f 265/4/5 264/4/5 263/4/5
f 266/6/5 262/6/5 264/6/5
f 266/4/5 264/4/5 265/4/5
f 267/6/5 265/6/5 261/6/5
f 267/6/5 266/6/5 265/6/5
f 268/6/5 262/6/5 266/6/5
f 268/6/5 266/6/5 267/6/5
f 269/6/6 270/6/6 271/6/6
f 271/6/6 270/6/6 272/6/6
f 271/4/6 272/4/6 273/4/6
f 273/4/6 272/4/6 274/4/6
f 274/4/6 272/4/6 275/4/6
f 275/4/6 272/4/6 276/4/6
f 271/4/6 273/4/6 277/4/6
f 276/4/6 272/4/6 278/4/6
f 271/4/6 277/4/6 279/4/6
f 278/4/6 272/4/6 280/4/6
f 271/4/6 279/4/6 281/4/6
f 280/4/6 272/4/6 284/4/6
f 269/6/6 271/6/6 285/6/6
f 283/4/6 284/4/6 285/4/6
f 282/4/6 283/4/6 285/4/6
f 271/4/6 281/4/6 285/4/6
f 281/4/6 282/4/6 285/4/6
f 284/4/6 272/4/6 286/4/6
f 285/4/6 284/4/6 286/4/6
f 272/6/6 270/6/6 286/6/6
f 269/6/6 285/6/6 287/6/6
f 285/6/6 286/6/6 287/6/6
f 286/6/6 270/6/6 288/6/6
f 287/6/6 286/6/6 288/6/6
f 289/6/6 290/6/6 291/6/6
f 291/6/6 290/6/6 292/6/6
f 289/6/6 291/6/6 293/6/6
f 291/4/6 292/4/6 293/4/6
f 292/6/6 290/6/6 294/6/6
f 293/4/6 292/4/6 294/4/6
f 289/6/6 293/6/6 295/6/6
f 293/6/6 294/6/6 295/6/6
f 294/6/6 290/6/6 296/6/6
f 295/6/6 294/6/6 296/6/6
