# MagicaVoxel @ Ephtracy

# group
o 

# material
mtllib tetegris.mtl
usemtl palette

# normals
vn -1 0 0
vn 1 0 0
vn 0 0 1
vn 0 0 -1
vn 0 -1 0
vn 0 1 0

# texcoords
vt 0.958984 0.5
vt 0.970703 0.5
vt 0.994141 0.5

# verts
v 0.8 2.3 -0.8
v 0.8 2.3 -2.4
v 0.8 2.4 -0.9
v 0.8 2.4 -2.3
v 0.8 3.8 -0.9
v 0.8 3.8 -2.3
v 0.8 3.9 -0.8
v 0.8 3.9 -2.4
v 1.4 3.9 -1.4
v 1.4 3.9 -1.5
v 1.4 3.9 -1.7
v 1.4 3.9 -1.8
v 1.4 4.1 -1.5
v 1.4 4.1 -1.7
v 1.4 4.2 -1.4
v 1.4 4.2 -1.8
v 1.8 3.9 -1.4
v 1.8 3.9 -1.5
v 1.8 3.9 -1.7
v 1.8 3.9 -1.8
v 1.8 4.1 -1.5
v 1.8 4.1 -1.7
v 1.8 4.2 -1.4
v 1.8 4.2 -1.8
v 2.4 2.3 -0.8
v 2.4 2.3 -2.4
v 2.4 2.4 -0.9
v 2.4 2.4 -2.3
v 2.4 3.8 -0.9
v 2.4 3.8 -2.3
v 2.4 3.9 -0.8
v 2.4 3.9 -2.4
v 0.8 2.3 -0.8
v 0.8 3.9 -0.8
v 0.9 2.4 -0.8
v 0.9 3.8 -0.8
v 1 3 -0.8
v 1 3.6 -0.8
v 1.1 2.4 -0.8
v 1.1 2.8 -0.8
v 1.1 2.9 -0.8
v 1.1 3 -0.8
v 1.1 3.1 -0.8
v 1.1 3.2 -0.8
v 1.1 3.4 -0.8
v 1.1 3.5 -0.8
v 1.1 3.6 -0.8
v 1.1 3.7 -0.8
v 1.2 2.4 -0.8
v 1.2 2.7 -0.8
v 1.2 3.1 -0.8
v 1.2 3.2 -0.8
v 1.2 3.4 -0.8
v 1.2 3.5 -0.8
v 1.4 2.4 -0.8
v 1.4 2.7 -0.8
v 1.4 3.1 -0.8
v 1.4 3.2 -0.8
v 1.4 3.4 -0.8
v 1.4 3.5 -0.8
v 1.5 2.4 -0.8
v 1.5 2.7 -0.8
v 1.5 3.1 -0.8
v 1.5 3.2 -0.8
v 1.5 3.4 -0.8
v 1.5 3.5 -0.8
v 1.7 2.4 -0.8
v 1.7 2.7 -0.8
v 1.7 3.1 -0.8
v 1.7 3.2 -0.8
v 1.7 3.4 -0.8
v 1.7 3.5 -0.8
v 1.8 2.4 -0.8
v 1.8 2.7 -0.8
v 1.8 3.1 -0.8
v 1.8 3.2 -0.8
v 1.8 3.4 -0.8
v 1.8 3.5 -0.8
v 2 2.4 -0.8
v 2 2.7 -0.8
v 2 3.1 -0.8
v 2 3.2 -0.8
v 2 3.4 -0.8
v 2 3.5 -0.8
v 2.1 2.4 -0.8
v 2.1 2.8 -0.8
v 2.1 2.9 -0.8
v 2.1 3 -0.8
v 2.1 3.1 -0.8
v 2.1 3.2 -0.8
v 2.1 3.4 -0.8
v 2.1 3.5 -0.8
v 2.1 3.6 -0.8
v 2.1 3.7 -0.8
v 2.2 3 -0.8
v 2.2 3.6 -0.8
v 2.3 2.4 -0.8
v 2.3 3.8 -0.8
v 2.4 2.3 -0.8
v 2.4 3.9 -0.8
v 1.4 3.9 -1.4
v 1.4 4.2 -1.4
v 1.5 3.9 -1.4
v 1.5 4.1 -1.4
v 1.7 3.9 -1.4
v 1.7 4.1 -1.4
v 1.8 3.9 -1.4
v 1.8 4.2 -1.4
v 1.4 3.9 -1.8
v 1.4 4.2 -1.8
v 1.5 3.9 -1.8
v 1.5 4.1 -1.8
v 1.7 3.9 -1.8
v 1.7 4.1 -1.8
v 1.8 3.9 -1.8
v 1.8 4.2 -1.8
v 0.8 2.3 -2.4
v 0.8 3.9 -2.4
v 0.9 2.4 -2.4
v 0.9 3.8 -2.4
v 2.3 2.4 -2.4
v 2.3 3.8 -2.4
v 2.4 2.3 -2.4
v 2.4 3.9 -2.4
v 0.8 2.3 -0.8
v 2.4 2.3 -0.8
v 0.9 2.3 -0.9
v 2.2 2.3 -0.9
v 0.9 2.3 -2.3
v 2.2 2.3 -2.3
v 0.8 2.3 -2.4
v 2.4 2.3 -2.4
v 0.8 3.9 -0.8
v 2.4 3.9 -0.8
v 0.9 3.9 -0.9
v 2.3 3.9 -0.9
v 1.4 3.9 -1.4
v 1.5 3.9 -1.4
v 1.7 3.9 -1.4
v 1.8 3.9 -1.4
v 1.4 3.9 -1.5
v 1.8 3.9 -1.5
v 1.4 3.9 -1.7
v 1.8 3.9 -1.7
v 1.4 3.9 -1.8
v 1.5 3.9 -1.8
v 1.7 3.9 -1.8
v 1.8 3.9 -1.8
v 0.9 3.9 -2.3
v 2.3 3.9 -2.3
v 0.8 3.9 -2.4
v 2.4 3.9 -2.4
v 1.4 4.2 -1.4
v 1.8 4.2 -1.4
v 1.5 4.2 -1.5
v 1.7 4.2 -1.5
v 1.5 4.2 -1.7
v 1.7 4.2 -1.7
v 1.4 4.2 -1.8
v 1.8 4.2 -1.8

# faces
f 3/3/1 2/3/1 1/3/1
f 4/3/1 2/3/1 3/3/1
f 5/3/1 3/3/1 1/3/1
f 5/1/1 4/1/1 3/1/1
f 6/3/1 2/3/1 4/3/1
f 6/1/1 4/1/1 5/1/1
f 7/3/1 5/3/1 1/3/1
f 7/3/1 6/3/1 5/3/1
f 8/3/1 2/3/1 6/3/1
f 8/3/1 6/3/1 7/3/1
f 13/3/1 10/3/1 9/3/1
f 13/1/1 11/1/1 10/1/1
f 14/3/1 12/3/1 11/3/1
f 14/1/1 11/1/1 13/1/1
f 15/3/1 13/3/1 9/3/1
f 15/3/1 14/3/1 13/3/1
f 16/3/1 12/3/1 14/3/1
f 16/3/1 14/3/1 15/3/1
f 17/3/2 18/3/2 21/3/2
f 18/1/2 19/1/2 21/1/2
f 19/3/2 20/3/2 22/3/2
f 21/1/2 19/1/2 22/1/2
f 17/3/2 21/3/2 23/3/2
f 21/3/2 22/3/2 23/3/2
f 22/3/2 20/3/2 24/3/2
f 23/3/2 22/3/2 24/3/2
f 25/3/2 26/3/2 27/3/2
f 27/3/2 26/3/2 28/3/2
f 25/3/2 27/3/2 29/3/2
f 27/1/2 28/1/2 29/1/2
f 28/3/2 26/3/2 30/3/2
f 29/1/2 28/1/2 30/1/2
f 25/3/2 29/3/2 31/3/2
f 29/3/2 30/3/2 31/3/2
f 30/3/2 26/3/2 32/3/2
f 31/3/2 30/3/2 32/3/2
f 35/3/3 34/3/3 33/3/3
f 36/3/3 34/3/3 35/3/3
f 37/1/3 36/1/3 35/1/3
f 38/1/3 36/1/3 37/1/3
f 39/3/3 35/3/3 33/3/3
f 39/1/3 37/1/3 35/1/3
f 40/1/3 37/1/3 39/1/3
f 41/1/3 37/1/3 40/1/3
f 42/3/3 38/3/3 37/3/3
f 42/1/3 37/1/3 41/1/3
f 43/3/3 38/3/3 42/3/3
f 44/3/3 38/3/3 43/3/3
f 45/3/3 38/3/3 44/3/3
f 46/3/3 38/3/3 45/3/3
f 47/1/3 36/1/3 38/1/3
f 47/3/3 38/3/3 46/3/3
f 48/1/3 36/1/3 47/1/3
f 49/3/3 39/3/3 33/3/3
f 49/3/3 40/3/3 39/3/3
f 50/3/3 40/3/3 49/3/3
f 51/3/3 42/3/3 41/3/3
f 51/3/3 43/3/3 42/3/3
f 51/2/3 44/2/3 43/2/3
f 52/3/3 45/3/3 44/3/3
f 52/2/3 44/2/3 51/2/3
f 53/2/3 46/2/3 45/2/3
f 53/3/3 45/3/3 52/3/3
f 54/3/3 48/3/3 47/3/3
f 54/2/3 46/2/3 53/2/3
f 54/3/3 47/3/3 46/3/3
f 55/1/3 50/1/3 49/1/3
f 55/3/3 49/3/3 33/3/3
f 56/3/3 40/3/3 50/3/3
f 56/1/3 50/1/3 55/1/3
f 57/3/3 52/3/3 51/3/3
f 57/3/3 51/3/3 41/3/3
f 58/2/3 53/2/3 52/2/3
f 58/3/3 52/3/3 57/3/3
f 59/3/3 54/3/3 53/3/3
f 59/2/3 53/2/3 58/2/3
f 60/3/3 48/3/3 54/3/3
f 60/3/3 54/3/3 59/3/3
f 61/3/3 55/3/3 33/3/3
f 61/3/3 56/3/3 55/3/3
f 62/3/3 40/3/3 56/3/3
f 62/3/3 56/3/3 61/3/3
f 63/3/3 57/3/3 41/3/3
f 63/2/3 58/2/3 57/2/3
f 64/3/3 59/3/3 58/3/3
f 64/2/3 58/2/3 63/2/3
f 65/2/3 60/2/3 59/2/3
f 65/3/3 59/3/3 64/3/3
f 66/3/3 48/3/3 60/3/3
f 66/2/3 60/2/3 65/2/3
f 67/3/3 61/3/3 33/3/3
f 67/1/3 62/1/3 61/1/3
f 68/3/3 40/3/3 62/3/3
f 68/1/3 62/1/3 67/1/3
f 69/3/3 65/3/3 64/3/3
f 69/3/3 63/3/3 41/3/3
f 69/3/3 66/3/3 65/3/3
f 69/3/3 64/3/3 63/3/3
f 70/3/3 66/3/3 69/3/3
f 71/3/3 66/3/3 70/3/3
f 72/3/3 48/3/3 66/3/3
f 72/3/3 66/3/3 71/3/3
f 73/3/3 67/3/3 33/3/3
f 73/3/3 68/3/3 67/3/3
f 74/3/3 40/3/3 68/3/3
f 74/3/3 68/3/3 73/3/3
f 75/3/3 69/3/3 41/3/3
f 75/2/3 70/2/3 69/2/3
f 76/3/3 71/3/3 70/3/3
f 76/2/3 70/2/3 75/2/3
f 77/2/3 72/2/3 71/2/3
f 77/3/3 71/3/3 76/3/3
f 78/3/3 48/3/3 72/3/3
f 78/2/3 72/2/3 77/2/3
f 79/3/3 73/3/3 33/3/3
f 79/1/3 74/1/3 73/1/3
f 80/3/3 40/3/3 74/3/3
f 80/1/3 74/1/3 79/1/3
f 81/3/3 75/3/3 41/3/3
f 81/3/3 76/3/3 75/3/3
f 82/2/3 77/2/3 76/2/3
f 82/3/3 76/3/3 81/3/3
f 83/3/3 78/3/3 77/3/3
f 83/2/3 77/2/3 82/2/3
f 84/3/3 48/3/3 78/3/3
f 84/3/3 78/3/3 83/3/3
f 85/3/3 80/3/3 79/3/3
f 85/3/3 79/3/3 33/3/3
f 86/3/3 40/3/3 80/3/3
f 86/3/3 80/3/3 85/3/3
f 86/1/3 41/1/3 40/1/3
f 87/3/3 81/3/3 41/3/3
f 87/1/3 41/1/3 86/1/3
f 88/3/3 81/3/3 87/3/3
f 89/2/3 82/2/3 81/2/3
f 89/3/3 81/3/3 88/3/3
f 90/3/3 83/3/3 82/3/3
f 90/2/3 82/2/3 89/2/3
f 91/2/3 84/2/3 83/2/3
f 91/3/3 83/3/3 90/3/3
f 92/3/3 48/3/3 84/3/3
f 92/2/3 84/2/3 91/2/3
f 93/3/3 48/3/3 92/3/3
f 94/1/3 36/1/3 48/1/3
f 94/3/3 48/3/3 93/3/3
f 95/1/3 88/1/3 87/1/3
f 95/3/3 93/3/3 92/3/3
f 95/1/3 86/1/3 85/1/3
f 95/3/3 92/3/3 91/3/3
f 95/1/3 87/1/3 86/1/3
f 95/3/3 90/3/3 89/3/3
f 95/3/3 91/3/3 90/3/3
f 95/3/3 89/3/3 88/3/3
f 96/1/3 94/1/3 93/1/3
f 96/3/3 93/3/3 95/3/3
f 97/3/3 85/3/3 33/3/3
f 97/1/3 95/1/3 85/1/3
f 97/1/3 96/1/3 95/1/3
f 98/1/3 94/1/3 96/1/3
f 98/1/3 96/1/3 97/1/3
f 98/3/3 34/3/3 36/3/3
f 98/1/3 36/1/3 94/1/3
f 99/3/3 97/3/3 33/3/3
f 99/3/3 98/3/3 97/3/3
f 100/3/3 34/3/3 98/3/3
f 100/3/3 98/3/3 99/3/3
f 103/3/3 102/3/3 101/3/3
f 104/3/3 102/3/3 103/3/3
f 105/1/3 104/1/3 103/1/3
f 106/3/3 102/3/3 104/3/3
f 106/1/3 104/1/3 105/1/3
f 107/3/3 106/3/3 105/3/3
f 108/3/3 102/3/3 106/3/3
f 108/3/3 106/3/3 107/3/3
f 109/3/4 110/3/4 111/3/4
f 111/3/4 110/3/4 112/3/4
f 111/1/4 112/1/4 113/1/4
f 112/3/4 110/3/4 114/3/4
f 113/1/4 112/1/4 114/1/4
f 113/3/4 114/3/4 115/3/4
f 114/3/4 110/3/4 116/3/4
f 115/3/4 114/3/4 116/3/4
f 117/3/4 118/3/4 119/3/4
f 119/3/4 118/3/4 120/3/4
f 117/3/4 119/3/4 121/3/4
f 119/1/4 120/1/4 121/1/4
f 120/3/4 118/3/4 122/3/4
f 121/1/4 120/1/4 122/1/4
f 117/3/4 121/3/4 123/3/4
f 121/3/4 122/3/4 123/3/4
f 122/3/4 118/3/4 124/3/4
f 123/3/4 122/3/4 124/3/4
f 127/3/5 126/3/5 125/3/5
f 128/3/5 126/3/5 127/3/5
f 129/3/5 127/3/5 125/3/5
f 129/1/5 128/1/5 127/1/5
f 130/3/5 126/3/5 128/3/5
f 130/1/5 128/1/5 129/1/5
f 131/3/5 129/3/5 125/3/5
f 131/3/5 130/3/5 129/3/5
f 132/3/5 126/3/5 130/3/5
f 132/3/5 130/3/5 131/3/5
f 133/3/6 134/3/6 135/3/6
f 135/3/6 134/3/6 136/3/6
f 135/1/6 136/1/6 137/1/6
f 137/1/6 136/1/6 138/1/6
f 138/1/6 136/1/6 139/1/6
f 139/1/6 136/1/6 140/1/6
f 135/1/6 137/1/6 141/1/6
f 140/1/6 136/1/6 142/1/6
f 135/1/6 141/1/6 143/1/6
f 142/1/6 136/1/6 144/1/6
f 135/1/6 143/1/6 145/1/6
f 144/1/6 136/1/6 148/1/6
f 133/3/6 135/3/6 149/3/6
f 147/1/6 148/1/6 149/1/6
f 146/1/6 147/1/6 149/1/6
f 135/1/6 145/1/6 149/1/6
f 145/1/6 146/1/6 149/1/6
f 148/1/6 136/1/6 150/1/6
f 149/1/6 148/1/6 150/1/6
f 136/3/6 134/3/6 150/3/6
f 133/3/6 149/3/6 151/3/6
f 149/3/6 150/3/6 151/3/6
f 150/3/6 134/3/6 152/3/6
f 151/3/6 150/3/6 152/3/6
f 153/3/6 154/3/6 155/3/6
f 155/3/6 154/3/6 156/3/6
f 153/3/6 155/3/6 157/3/6
f 155/1/6 156/1/6 157/1/6
f 156/3/6 154/3/6 158/3/6
f 157/1/6 156/1/6 158/1/6
f 153/3/6 157/3/6 159/3/6
f 157/3/6 158/3/6 159/3/6
f 158/3/6 154/3/6 160/3/6
f 159/3/6 158/3/6 160/3/6
